<?xml version="1.0" ?><svg height="32" width="32" xmlns="http://www.w3.org/2000/svg"><path d="M15.686 2.996A13.458 13.458 0 008 5.263c-5.347 3.574-7.435 10.46-4.974 16.4 2.46 5.942 8.803 9.332 15.111 8.077 6.308-1.255 10.871-6.815 10.871-13.246h-.006v-1.5h-12v4h7.82a9.627 9.627 0 01-7.437 6.96A9.628 9.628 0 016.59 20.186a9.628 9.628 0 013.553-11.713 9.626 9.626 0 0112.18 1.202l2.73-2.729a13.487 13.487 0 00-9.367-3.949z" style="line-height:normal;text-indent:0;text-align:start;text-decoration-line:none;text-decoration-style:solid;text-decoration-color:#000;text-transform:none;block-progression:tb;white-space:normal;isolation:auto;mix-blend-mode:normal;solid-color:#000;solid-opacity:1" color="#000" font-weight="400" font-family="sans-serif" overflow="visible" fill="#ea4335" fill-rule="evenodd"/><path d="M6.305 19.403L3.1 21.82c2.508 5.842 8.786 9.163 15.037 7.92a13.46 13.46 0 007.29-4.112l-3.02-2.416a9.628 9.628 0 01-16.102-3.81z" style="line-height:normal;text-indent:0;text-align:start;text-decoration-line:none;text-decoration-style:solid;text-decoration-color:#000;text-transform:none;block-progression:tb;white-space:normal;isolation:auto;mix-blend-mode:normal;solid-color:#000;solid-opacity:1" color="#000" font-weight="400" font-family="sans-serif" overflow="visible" fill="#34a853" fill-rule="evenodd"/><path d="M4.496 8.672c-2.624 3.703-3.288 8.605-1.47 12.992.041.1.128.299.128.299 1.354-.782 2.354-1.468 3.306-2.116a9.625 9.625 0 011.068-8.79c-2.02-1.562-2.02-1.562-3.032-2.385z" style="line-height:normal;text-indent:0;text-align:start;text-decoration-line:none;text-decoration-style:solid;text-decoration-color:#000;text-transform:none;block-progression:tb;white-space:normal;isolation:auto;mix-blend-mode:normal;solid-color:#000;solid-opacity:1" color="#000" font-weight="400" font-family="sans-serif" overflow="visible" fill="#fbbc05" fill-rule="evenodd"/><path d="M17.002 14.995v4h7.82a9.609 9.609 0 01-2.416 4.218l3.022 2.416a13.481 13.481 0 003.58-9.134h-.006v-1.5h-12z" style="line-height:normal;text-indent:0;text-align:start;text-decoration-line:none;text-decoration-style:solid;text-decoration-color:#000;text-transform:none;block-progression:tb;white-space:normal;isolation:auto;mix-blend-mode:normal;solid-color:#000;solid-opacity:1" color="#000" font-weight="400" font-family="sans-serif" overflow="visible" fill="#4788f4" fill-rule="evenodd"/><path d="M15.686 2.996A13.458 13.458 0 008 5.263c-5.347 3.574-7.435 10.46-4.974 16.4 2.46 5.942 8.803 9.332 15.111 8.077 6.308-1.255 10.871-6.815 10.871-13.246h-.006v-1.5h-12v4h7.82a9.627 9.627 0 01-7.437 6.96A9.628 9.628 0 016.59 20.186a9.628 9.628 0 013.553-11.713 9.626 9.626 0 0112.18 1.202l2.73-2.729a13.487 13.487 0 00-9.367-3.949z" style="line-height:normal;text-indent:0;text-align:start;text-decoration-line:none;text-decoration-style:solid;text-decoration-color:#000;text-transform:none;block-progression:tb;white-space:normal;isolation:auto;mix-blend-mode:normal;solid-color:#000;solid-opacity:1" color="#000" font-weight="400" font-family="sans-serif" overflow="visible" fill="none"/><path d="M4.497 8.572l3.03 2.467m14.884 12.122l2.99 2.434M6.385 19.563l-3.346 2.505" fill="none"/></svg>
